<?xml version="1.0" encoding="UTF-8"?>
<svg width="20px" height="20px" viewBox="0 0 20 20" version="1.1" xmlns="http://www.w3.org/2000/svg" xmlns:xlink="http://www.w3.org/1999/xlink">
    <title>Group 6</title>
    <g id="Page-1" stroke="none" stroke-width="1" fill="none" fill-rule="evenodd">
        <g id="Desktop-HD" transform="translate(-900.000000, -793.000000)">
            <g id="Group-4" transform="translate(900.000000, 793.000000)">
                <g id="Group-5" fill-rule="nonzero">
                    <circle id="svg_2" fill="#CF1D39" cx="10" cy="10" r="10"></circle>
                    <path d="M14.485766,6.01941748 C14.8611052,6.01941748 15.1653777,6.32368998 15.1653777,6.69902913 C15.1653777,7.06185697 14.8810519,7.35827698 14.5230544,7.37763517 L14.485766,7.37864078 L5.514234,7.37864078 C5.13889485,7.37864078 4.83462235,7.07436828 4.83462235,6.69902913 C4.83462235,6.33620128 5.11894809,6.03978127 5.47694561,6.02042308 L5.514234,6.01941748 L14.485766,6.01941748 Z" id="Line" fill="#FFFFFF"></path>
                    <path d="M14.485766,9.51456311 C14.8611052,9.51456311 15.1653777,9.81883561 15.1653777,10.1941748 C15.1653777,10.5570026 14.8810519,10.8534226 14.5230544,10.8727808 L14.485766,10.8737864 L5.514234,10.8737864 C5.13889485,10.8737864 4.83462235,10.5695139 4.83462235,10.1941748 C4.83462235,9.83134691 5.11894809,9.5349269 5.47694561,9.51556871 L5.514234,9.51456311 L14.485766,9.51456311 Z" id="Line" fill="#FFFFFF"></path>
                    <path d="M14.485766,12.815534 C14.8611052,12.815534 15.1653777,13.1198065 15.1653777,13.4951456 C15.1653777,13.8579735 14.8810519,14.1543935 14.5230544,14.1737517 L14.485766,14.1747573 L5.514234,14.1747573 C5.13889485,14.1747573 4.83462235,13.8704848 4.83462235,13.4951456 C4.83462235,13.1323178 5.11894809,12.8358978 5.47694561,12.8165396 L5.514234,12.815534 L14.485766,12.815534 Z" id="Line" fill="#FFFFFF"></path>
                </g>
                <g id="Group-3" transform="translate(5.454545, 6.363636)"></g>
            </g>
        </g>
    </g>
</svg>