<svg width="572" height="100" viewBox="0 0 572 100" fill="none" xmlns="http://www.w3.org/2000/svg">
<path fill-rule="evenodd" clip-rule="evenodd" d="M100.209 50.8975H88.1256H83.1726V32.0855H100.209C106.214 32.0855 109.356 36.8165 109.356 41.4915C109.356 45.1275 106.873 50.8975 100.209 50.8975ZM100.009 15.5815H70.1876C67.6086 15.5815 65.5176 17.7315 65.5176 20.3835V84.7465H77.0236C80.4756 84.7465 83.2726 81.8705 83.2726 78.3215V67.7105H97.5726L109.171 84.7465H128.415L114.519 64.5345L116.136 63.4935C122.641 59.3075 127.011 50.5065 127.011 41.5935C127.011 23.7215 113.014 15.5815 100.009 15.5815Z" fill="white"/>
<path fill-rule="evenodd" clip-rule="evenodd" d="M22.214 84.7466H33.719C37.171 84.7466 39.969 81.8706 39.969 78.3216V36.6296V32.2946H56.209C59.145 32.2946 61.525 29.8476 61.525 26.8286V15.5816H4.07196C2.18696 15.5816 0.657959 17.1536 0.657959 19.0916V32.2946H22.214V84.7466Z" fill="white"/>
<path fill-rule="evenodd" clip-rule="evenodd" d="M150.82 84.7466H162.325C165.777 84.7466 168.574 81.8706 168.574 78.3216V32.2946H184.814C187.751 32.2946 190.131 29.8476 190.131 26.8286V15.5816H132.678C130.792 15.5816 129.264 17.1536 129.264 19.0916V32.2946H150.82V84.7466Z" fill="white"/>
<path fill-rule="evenodd" clip-rule="evenodd" d="M571.014 100H224.32C212.319 100 202.591 90.271 202.591 78.271V0.328979H549.285C561.285 0.328979 571.014 10.057 571.014 22.058V100Z" fill="#CF1D39"/>
<path fill-rule="evenodd" clip-rule="evenodd" d="M226.652 15.874H238.827V43.17H267.695V20.291C267.695 17.445 269.267 15.874 272.113 15.874H284.29V80.189C284.29 83.035 282.717 84.607 279.871 84.607H267.695V58.291H238.827V80.189C238.827 83.035 237.256 84.607 234.408 84.607H222.233V20.291C222.233 17.445 223.804 15.874 226.652 15.874Z" fill="white"/>
<path fill-rule="evenodd" clip-rule="evenodd" d="M316.505 58.7832H334.964L325.736 34.3332L316.505 58.7832ZM289.209 84.6072L315.328 19.3102C316.211 16.9542 317.978 15.8742 320.433 15.8742H334.67L362.262 84.6072H348.319C345.768 84.6072 344.195 83.5272 343.313 81.0722L340.171 72.8252H311.301L308.159 81.0722C307.275 83.5272 305.704 84.6072 303.151 84.6072H289.209Z" fill="white"/>
<path fill-rule="evenodd" clip-rule="evenodd" d="M401.853 70.3701C407.45 70.3701 410.003 67.6211 410.003 63.3001C410.003 58.9781 407.45 56.2291 401.853 56.2291H383.588V70.3701H401.853ZM399.692 43.6621C404.308 43.6621 407.351 41.4041 407.351 36.8861C407.351 32.3691 404.308 30.1111 399.692 30.1111H383.588V43.6621H399.692ZM367.485 84.6071V20.2911C367.485 17.4451 369.058 15.8741 371.905 15.8741H402.147C415.402 15.8741 423.848 23.9261 423.848 34.7261C423.848 41.0111 421.197 46.0191 417.17 48.8651C421.885 51.7121 426.498 57.8021 426.498 65.3611C426.498 76.5551 418.743 84.6071 405.682 84.6071H367.485Z" fill="white"/>
<path fill-rule="evenodd" clip-rule="evenodd" d="M435.2 84.6069V20.2919C435.2 17.4449 436.769 15.8739 439.617 15.8739H487.043V26.2819C487.043 29.1299 485.473 30.7009 482.625 30.7009H451.694V43.0729H481.152V53.4799C481.152 56.3279 479.579 57.8979 476.734 57.8979H451.694V69.7789H487.043V80.1899C487.043 83.0349 485.473 84.6069 482.625 84.6069H435.2Z" fill="white"/>
<path fill-rule="evenodd" clip-rule="evenodd" d="M527.107 50.7944C533.296 50.7944 537.716 46.5724 537.716 40.6764C537.716 34.7814 533.296 30.5564 527.107 30.5564H511.289V50.7944H527.107ZM494.686 84.4944V20.1414C494.686 17.7004 496.665 15.7214 499.106 15.7214H527.302C543.416 15.7214 554.517 25.3504 554.517 40.6764C554.517 51.4814 548.721 59.8354 540.272 63.2734L555.009 84.4944H536.44L523.471 65.6304H511.289V78.7954C511.289 81.9394 508.733 84.4944 505.787 84.4944H494.686Z" fill="white"/>
</svg>
